<svg data-v-fde0c5aa="" xmlns="http://www.w3.org/2000/svg" viewBox="0 0 300 300" class="iconLeft"><!----><defs data-v-fde0c5aa=""><!----></defs><rect data-v-fde0c5aa="" fill="#FFFFFF00" x="0" y="0" width="300px" height="300px" class="logo-background-square"></rect><defs data-v-fde0c5aa=""><!----></defs><g data-v-fde0c5aa="" id="12785987-10a2-4ada-a7bc-01b341b0ba9d" fill="#FFFFFF" transform="matrix(4.670398121895082,0,0,4.670398121895082,134.2728854036016,110.48843282411573)"><path d="M0.28 3.72L0.28 3.72L0.28 3.72Q0.28 3.50 0.60 3.50L0.60 3.50L0.60 3.50Q0.64 3.50 0.76 3.49L0.76 3.49L0.76 3.49Q0.87 3.49 1.12 3.49L1.12 3.49L1.12 3.49Q1.19 3.49 1.51 3.51L1.51 3.51L1.51 3.51Q1.82 3.53 1.96 3.53L1.96 3.53L1.96 3.53Q2.27 3.53 3.15 3.51L3.15 3.51L3.15 3.51Q4.03 3.49 4.27 3.49L4.27 3.49L4.27 3.49Q5.59 3.49 6.54 4.15L6.54 4.15L6.54 4.15Q7.49 4.82 7.49 6.06L7.49 6.06L7.49 6.06Q7.49 6.75 7.24 7.29L7.24 7.29L7.24 7.29Q6.99 7.83 6.63 8.13L6.63 8.13L6.63 8.13Q6.27 8.44 5.83 8.64L5.83 8.64L5.83 8.64Q5.39 8.85 5.05 8.91L5.05 8.91L5.05 8.91Q4.70 8.97 4.44 8.97L4.44 8.97L4.44 8.97Q3.99 8.97 3.53 8.87L3.53 8.87L3.53 8.87Q3.07 8.76 3.07 8.65L3.07 8.65L3.07 8.65Q3.07 8.44 3.25 8.44L3.25 8.44L3.25 8.44Q3.32 8.44 3.54 8.50L3.54 8.50L3.54 8.50Q3.75 8.55 3.96 8.55L3.96 8.55L3.96 8.55Q4.28 8.55 4.65 8.46L4.65 8.46L4.65 8.46Q5.01 8.37 5.40 8.17L5.40 8.17L5.40 8.17Q5.80 7.97 6.05 7.55L6.05 7.55L6.05 7.55Q6.30 7.14 6.30 6.59L6.30 6.59L6.30 6.59Q6.30 5.66 5.54 4.85L5.54 4.85L5.54 4.85Q4.79 4.05 3.46 4.05L3.46 4.05L3.46 4.05Q3.02 4.05 2.87 4.30L2.87 4.30L2.87 4.30Q2.72 4.56 2.72 5.47L2.72 5.47L2.72 5.47Q2.72 8.39 2.70 8.80L2.70 8.80L2.70 8.80Q2.69 9.21 2.69 11.26L2.69 11.26L2.69 11.26Q2.69 12.49 3.26 12.87L3.26 12.87L3.26 12.87Q3.42 12.96 3.65 12.99L3.65 12.99L3.65 12.99Q3.88 13.02 4.03 13.01L4.03 13.01L4.03 13.01Q4.19 13.01 4.30 13.07L4.30 13.07L4.30 13.07Q4.42 13.13 4.42 13.30L4.42 13.30L4.42 13.30Q4.42 13.54 4.10 13.54L4.10 13.54L4.10 13.54Q3.78 13.54 2.97 13.50L2.97 13.50L2.97 13.50Q2.16 13.47 2.10 13.47L2.10 13.47L2.10 13.47Q1.96 13.47 1.55 13.50L1.55 13.50L1.55 13.50Q1.13 13.52 0.80 13.52L0.80 13.52L0.80 13.52Q0.36 13.52 0.36 13.37L0.36 13.37L0.36 13.37Q0.36 13.29 0.39 13.23L0.39 13.23L0.39 13.23Q0.41 13.17 0.43 13.14L0.43 13.14L0.43 13.14Q0.45 13.10 0.52 13.08L0.52 13.08L0.52 13.08Q0.59 13.05 0.62 13.03L0.62 13.03L0.62 13.03Q0.64 13.02 0.75 13.00L0.75 13.00L0.75 13.00Q0.85 12.98 0.90 12.96L0.90 12.96L0.90 12.96Q0.92 12.95 0.98 12.94L0.98 12.94L0.98 12.94Q1.04 12.94 1.06 12.93L1.06 12.93L1.06 12.93Q1.08 12.92 1.13 12.89L1.13 12.89L1.13 12.89Q1.18 12.85 1.20 12.79L1.20 12.79L1.20 12.79Q1.23 12.73 1.28 12.62L1.28 12.62L1.28 12.62Q1.33 12.52 1.39 12.35L1.39 12.35L1.39 12.35Q1.48 12.08 1.54 10.25L1.54 10.25L1.54 10.25Q1.60 8.41 1.60 7.41L1.60 7.41L1.60 7.41Q1.60 6.54 1.59 5.80L1.59 5.80L1.59 5.80Q1.58 5.07 1.58 5.03L1.58 5.03L1.58 5.03Q1.58 4.65 1.34 4.28L1.34 4.28L1.34 4.28Q1.11 3.91 0.56 3.91L0.56 3.91L0.56 3.91Q0.28 3.91 0.28 3.72ZM8.72 10.82L8.72 10.82L8.72 10.82Q8.72 10.53 8.92 10.53L8.92 10.53L8.92 10.53Q9.10 10.53 9.14 10.67L9.14 10.67L9.14 10.67Q9.28 11.00 9.40 11.25L9.40 11.25L9.40 11.25Q9.52 11.49 9.79 11.85L9.79 11.85L9.79 11.85Q10.05 12.21 10.36 12.44L10.36 12.44L10.36 12.44Q10.67 12.67 11.15 12.84L11.15 12.84L11.15 12.84Q11.63 13.01 12.21 13.01L12.21 13.01L12.21 13.01Q13.26 13.01 13.89 12.45L13.89 12.45L13.89 12.45Q14.53 11.90 14.53 11.00L14.53 11.00L14.53 11.00Q14.53 10.35 14.10 9.90L14.10 9.90L14.10 9.90Q13.66 9.46 13.10 9.27L13.10 9.27L13.10 9.27Q12.54 9.09 11.68 8.77L11.68 8.77L11.68 8.77Q10.82 8.46 10.28 8.13L10.28 8.13L10.28 8.13Q9.00 7.38 9.00 6.08L9.00 6.08L9.00 6.08Q9.00 4.83 9.90 4.08L9.90 4.08L9.90 4.08Q10.81 3.33 12.25 3.33L12.25 3.33L12.25 3.33Q12.78 3.33 13.52 3.56L13.52 3.56L13.52 3.56Q14.25 3.79 14.27 3.79L14.27 3.79L14.27 3.79Q14.31 3.79 14.42 3.74L14.42 3.74L14.42 3.74Q14.53 3.68 14.59 3.68L14.59 3.68L14.59 3.68Q14.77 3.68 14.80 3.79L14.80 3.79L14.80 3.79Q15.09 5.49 15.09 5.70L15.09 5.70L15.09 5.70Q15.09 6.09 14.90 6.09L14.90 6.09L14.90 6.09Q14.77 6.09 14.70 5.89L14.70 5.89L14.70 5.89Q14.53 5.49 14.37 5.24L14.37 5.24L14.37 5.24Q14.21 4.98 14.14 4.91L14.14 4.91L14.14 4.91Q14.07 4.84 13.78 4.58L13.78 4.58L13.78 4.58Q13.02 3.91 11.94 3.91L11.94 3.91L11.94 3.91Q11.07 3.91 10.49 4.33L10.49 4.33L10.49 4.33Q9.90 4.75 9.90 5.46L9.90 5.46L9.90 5.46Q9.90 6.09 10.24 6.50L10.24 6.50L10.24 6.50Q10.58 6.90 11.16 7.13L11.16 7.13L11.16 7.13Q11.73 7.35 12.36 7.55L12.36 7.55L12.36 7.55Q12.99 7.74 13.70 8.09L13.70 8.09L13.70 8.09Q14.41 8.44 14.87 8.93L14.87 8.93L14.87 8.93Q15.43 9.53 15.43 10.43L15.43 10.43L15.43 10.43Q15.43 11.90 14.49 12.76L14.49 12.76L14.49 12.76Q13.55 13.62 12.17 13.62L12.17 13.62L12.17 13.62Q11.20 13.62 10.61 13.52L10.61 13.52L10.61 13.52Q10.02 13.41 9.41 13.09L9.41 13.09L9.41 13.09Q9.23 12.98 8.97 12.00L8.97 12.00L8.97 12.00Q8.72 11.02 8.72 10.82ZM16.11 13.33L16.11 13.33L16.11 13.33Q16.11 13.13 16.32 13.06L16.32 13.06L16.32 13.06Q16.77 12.89 17.11 12.31L17.11 12.31L17.11 12.31Q17.44 11.73 18.77 8.83L18.77 8.83L18.77 8.83Q20.15 5.87 21.20 3.63L21.20 3.63L21.20 3.63Q21.29 3.42 21.37 3.36L21.37 3.36L21.37 3.36Q21.45 3.30 21.62 3.30L21.62 3.30L21.62 3.30Q21.74 3.30 21.78 3.36L21.78 3.36L21.78 3.36Q21.83 3.42 21.97 3.82L21.97 3.82L21.97 3.82Q22.05 4.06 22.11 4.23L22.11 4.23L22.11 4.23Q22.18 4.40 22.32 4.77L22.32 4.77L22.32 4.77Q22.46 5.15 22.62 5.56L22.62 5.56L22.62 5.56Q23.07 6.66 24.17 9.22L24.17 9.22L24.17 9.22Q25.27 11.77 25.37 11.98L25.37 11.98L25.37 11.98Q25.61 12.46 25.90 12.71L25.90 12.71L25.90 12.71Q26.19 12.95 26.41 12.97L26.41 12.97L26.41 12.97Q26.63 12.99 26.77 13.04L26.77 13.04L26.77 13.04Q26.92 13.09 26.92 13.26L26.92 13.26L26.92 13.26Q26.92 13.47 26.54 13.47L26.54 13.47L26.54 13.47Q26.39 13.47 25.94 13.43L25.94 13.43L25.94 13.43Q25.49 13.38 25.28 13.38L25.28 13.38L25.28 13.38Q25.02 13.38 24.60 13.41L24.60 13.41L24.60 13.41Q24.18 13.44 23.98 13.44L23.98 13.44L23.98 13.44Q23.55 13.44 23.43 13.40L23.43 13.40L23.43 13.40Q23.31 13.37 23.31 13.24L23.31 13.24L23.31 13.24Q23.31 13.15 23.42 13.08L23.42 13.08L23.42 13.08Q23.53 13.02 23.66 13.00L23.66 13.00L23.66 13.00Q23.79 12.98 23.90 12.87L23.90 12.87L23.90 12.87Q24.01 12.77 24.01 12.59L24.01 12.59L24.01 12.59Q24.01 12.28 23.66 11.33L23.66 11.33L23.66 11.33Q23.31 10.37 23.07 9.93L23.07 9.93L23.07 9.93Q22.95 9.69 22.50 9.69L22.50 9.69L22.50 9.69Q22.43 9.69 21.88 9.70L21.88 9.70L21.88 9.70Q21.34 9.72 20.80 9.72L20.80 9.72L20.06 9.72L20.06 9.72Q19.43 9.72 19.27 9.79L19.27 9.79L19.27 9.79Q19.11 9.86 18.98 10.12L18.98 10.12L18.98 10.12Q18.90 10.30 18.70 10.70L18.70 10.70L18.70 10.70Q18.51 11.10 18.44 11.26L18.44 11.26L18.44 11.26Q18.37 11.41 18.26 11.65L18.26 11.65L18.26 11.65Q18.16 11.90 18.12 12.05L18.12 12.05L18.12 12.05Q18.09 12.19 18.09 12.31L18.09 12.31L18.09 12.31Q18.09 12.63 18.25 12.80L18.25 12.80L18.25 12.80Q18.41 12.96 18.61 12.98L18.61 12.98L18.61 12.98Q18.80 13.01 18.96 13.06L18.96 13.06L18.96 13.06Q19.12 13.12 19.12 13.26L19.12 13.26L19.12 13.26Q19.12 13.36 19.08 13.40L19.08 13.40L19.08 13.40Q19.04 13.45 18.89 13.45L18.89 13.45L18.89 13.45Q18.80 13.45 18.40 13.45L18.40 13.45L18.40 13.45Q18.00 13.44 17.72 13.44L17.72 13.44L17.72 13.44Q17.42 13.44 17.03 13.47L17.03 13.47L17.03 13.47Q16.65 13.50 16.52 13.50L16.52 13.50L16.52 13.50Q16.11 13.50 16.11 13.33ZM19.63 8.71L19.63 8.71L19.63 8.71Q19.63 8.89 19.75 8.93L19.75 8.93L19.75 8.93Q19.88 8.97 20.34 8.97L20.34 8.97L20.78 8.97L22.11 8.96L22.11 8.96Q22.65 8.96 22.65 8.74L22.65 8.74L22.65 8.74Q22.65 8.55 21.97 7.01L21.97 7.01L21.97 7.01Q21.28 5.46 21.10 5.46L21.10 5.46L21.10 5.46Q20.97 5.46 20.30 7.01L20.30 7.01L20.30 7.01Q19.63 8.55 19.63 8.71Z"></path></g><defs data-v-fde0c5aa=""><linearGradient data-v-fde0c5aa="" gradientTransform="rotate(25)" id="41b8a957-8836-4ea5-9b64-1efe588132e6" x1="0%" y1="0%" x2="100%" y2="0%"><stop data-v-fde0c5aa="" offset="0%" stop-color="#167421" stop-opacity="1"></stop><stop data-v-fde0c5aa="" offset="100%" stop-color="#D1E5E8" stop-opacity="1"></stop></linearGradient></defs><g data-v-fde0c5aa="" id="5157a011-0a2d-4250-8af9-a3f89f9bc7c5" stroke="none" fill="url(#41b8a957-8836-4ea5-9b64-1efe588132e6)" transform="matrix(0.8702404717537663,0,0,0.8702404717537663,37.77827609885056,106.48706847328191)"><path d="M25.531 23.026c0-6.345-5.144-11.489-11.489-11.489S2.553 16.681 2.553 23.026c0 6.346 5.144 11.49 11.489 11.49s11.489-5.144 11.489-11.49zm35.346 8.477c6.346 0 11.49-5.144 11.49-11.489 0-6.345-5.145-11.489-11.49-11.489-6.345 0-11.488 5.144-11.488 11.489 0 6.345 5.143 11.489 11.488 11.489zM40.851 67.329s3.404-15.697-2.554-17.21c-5.499-1.397-9.01 0-9.01 0v-3.404l-10.564-3.688 17.021 3.688s7.659 3.688 10.213 0c2.553-3.688 0-2.837-3.121-3.688-3.12-.851-2.27-2.27-2.27-2.27s-3.688 1.986-4.538.851c-.852-1.135 5.39-3.404 5.39-3.404s-.852-2.27-5.39 0c0 0-4.681-4.255-13.901-4.255 0 0-2.553 3.688-12.198 2.27 0 0 4.539 10.212 4.255 17.872-.283 7.66 1.702 11.064 7.377 17.307 0 0 .283 4.822-5.816 7.092 0 0-5.532 1.985-2.837 6.809s3.267 6.241 8.654 6.241c5.389 0 8.654-6.241 0-6.241 0 0 9.644-7.376 7.941-15.32-1.702-7.942-2.553-9.928-2.553-9.928l7.376-3.121v13.333c0 5.106 1.135 9.361 6.524 5.106s9.078-6.524 7.376-9.646c-1.702-3.121-7.375 1.606-7.375 1.606zm-6.809-26.855s-1.418 0-14.185-2.837c0 0 9.929-.851 14.185 2.837zm40.663 4.349s.541-3.853-.474-10.875c-.997-6.906-7.187-2.081-7.187-2.081s-3.877 3.12-10.496 1.04c0 0-1.23 5.012-15.509 3.688 0 0 1.039.284 1.891 1.608 0 0-5.765 2.341-5.769 2.742-.009 1.003 4.634-1.372 4.634-1.372s-1.134 1.655.096 2.223c1.229.567 5.295.567 5.768 2.553 0 0-.013-1.702.986-1.513s14.522 1.049 19.629-3.826c0 0-1.798 3.258-6.147 4.015l-.189 2.648s-8.037.945-11.252 7.186c0 0-4.445 1.513-2.459 4.539 0 0-3.215 1.797-1.229 2.837 1.986 1.039 4.634 1.039 4.634 1.039s3.31 3.972 4.444 4.634c0 0-5.768 7.566-.852 10.592 4.917 3.025 9.078-9.646 7.187-11.82-1.891-2.175-2.363-3.688-2.363-3.688-1.702-2.223-3.972-5.012-3.972-5.012 3.175.686 3.972 5.012 3.972 5.012s3.121.095 3.783-1.323l-1.514-2.085h1.419s3.404 9.934 13.711 5.157c0 0-.945 2.223-5.012 2.506 0 0 2.27 2.081-.852 6.053-3.12 3.972-7.376 8.889-6.052 10.401 1.324 1.514 5.769 8.605 10.308 7.66s-1.985-8.983-1.985-8.983 3.782-4.16 5.769-8.417c1.985-4.255 1.04-7.658 0-10.495 0 0 2.08-1.229 3.972-3.782 1.891-2.554 5.2-4.918 6.809-4.823-.002 0-3.077-6.893-15.699-8.038zm-24.038-5.49c-4.444.336-7.357.478-7.357.478s3.594-1.607 7.849-1.607 13.428-2.932 13.428-2.932c-2.081 1.608-9.478 3.726-13.92 4.061zm8.25 13.917c-3.5-3.121-6.437-.861-6.437-.861 5.675-5.201 10.12 3.593 10.12 3.593s-.185.388-3.683-2.732zm23.622-33.84c6.597 6.59 14.908.956 14.908.956-3.057 1.724-10.117-4.562-10.117-4.562l3.231.721c-1.92-3.539-8.892-6.393-8.892-6.393l1.909-.904c-7.273-3.108-11.591 4.247-11.591 4.247 1.059 1.105 1.236 2.5 1.236 2.5s2.718-3.154 9.316 3.435z"></path></g><!----></svg>